<svg xmlns="http://www.w3.org/2000/svg" width="110.319" height="19.428" viewBox="0 0 110.319 19.428">
  <g id="Layer_1" data-name="Layer 1" transform="translate(0 0)">
    <path id="Path_11" data-name="Path 11" d="M38.99,7.531c-.964-.043-1.927-.092-2.891-.126-1.126-.04-2.251-.068-3.375-.1q-3.136-.1-6.272-.033c-1.332.026-2.665.074-4,.136q-1.824.083-3.643.266a51.964,51.964,0,0,0-6.226.95,24.949,24.949,0,0,0-4.622,1.458,12.955,12.955,0,0,0-2.226,1.231,8.372,8.372,0,0,0-1.426,1.243,5.968,5.968,0,0,0-1.552,4.631c0,.035.009.068.011.1a.1.1,0,0,1,0,.033.11.11,0,0,1-.115-.05A15.991,15.991,0,0,1,.783,14.715a6.32,6.32,0,0,1-.689-1.676,2.921,2.921,0,0,1,.788-2.852,5.86,5.86,0,0,1,1.224-.945,14.1,14.1,0,0,1,2.565-1.17c1.6-.568,3.22-1.078,4.842-1.583Q14.2,5.033,18.959,3.842q3.824-.953,7.7-1.707,2.467-.479,4.952-.863Q33.479.982,35.36.755,37.14.539,38.922.377C39.643.31,40.365.266,41.086.21,42.933.066,44.781,0,46.635-.032q1.758-.024,3.514.078C50.8.084,51.455.135,52.106.2a34.34,34.34,0,0,1,3.472.524A48.734,48.734,0,0,1,64.84,3.693a74.115,74.115,0,0,1,8.523,4.342,1.326,1.326,0,0,0,.712.188c1.287,0,2.574-.01,3.859.013q2.291.042,4.579.2c1.4.1,2.792.229,4.182.4a57.4,57.4,0,0,1,9.137,1.849,38.271,38.271,0,0,1,7.448,3.033,28.426,28.426,0,0,1,6.815,5.1.726.726,0,0,1,.223.279c-.15.018-.284.039-.418.048q-1.307.086-2.613.165c-.321.021-.643.037-.962.068a.343.343,0,0,1-.366-.18,14.208,14.208,0,0,0-1.287-1.7,16.385,16.385,0,0,0-4.6-3.63,25.108,25.108,0,0,0-4.549-1.864c-1.548-.478-3.123-.844-4.708-1.175-1.248-.261-2.5-.488-3.764-.665-.829-.117-1.662-.209-2.5-.309-1.209-.144-2.424-.227-3.638-.315-.435-.032-.871-.057-1.307-.073-1.068-.039-2.135-.071-3.2-.106-1.586-.053-3.171-.04-4.756-.033-.276,0-.552-.019-.827-.039Q69.56,9.2,68.289,9.1q-1.579-.126-3.16-.246c-.687-.053-1.374-.1-2.061-.154l-2.542-.193c-.7-.053-1.4-.1-2.1-.155-.63-.047-1.26-.095-1.891-.14a.469.469,0,0,1-.229-.06,1.957,1.957,0,0,1-1.041-1.883,1.866,1.866,0,0,1,.891-1.443.413.413,0,0,1,.3-.043,11.354,11.354,0,0,1,1.731.291c.489.126.969.281,1.448.441a.7.7,0,0,1,.4.339c.29.5.6.982.889,1.476a.378.378,0,0,0,.32.213c.537.049,1.073.118,1.61.178l2.328.252,2.192.236.581.063a.923.923,0,0,0-.319-.223,57.869,57.869,0,0,0-6.113-2.932A47.7,47.7,0,0,0,54.9,2.938a27.931,27.931,0,0,0-3.353-.606,39.4,39.4,0,0,0-6.157-.219c-.8.03-1.607.05-2.41.093-1.008.053-2.017.126-3.025.189q-1.066.072-2.13.164c-.857.076-1.714.16-2.571.245q-1.134.111-2.262.233-1.095.119-2.191.252-1.008.115-2.017.234c-.867.1-1.733.21-2.6.315-.228.028-.455.06-.684.084a.166.166,0,0,0-.173.132,1.5,1.5,0,0,0,.682,1.816,2.469,2.469,0,0,0,1.07.349c.812.069,1.622.163,2.433.245.789.079,1.578.154,2.366.232q1.218.123,2.434.252c.56.057,1.121.11,1.68.165l2.468.252,1.027.1C39.337,7.638,39.157,7.541,38.99,7.531Z" transform="translate(0.001 0.036)" fill="#1c1e28"/>
    <path id="Path_12" data-name="Path 12" d="M232.576,68.988c-.229.008-.459.021-.688.023l-10.335.076-11.374.083-8.858.063-6.686.052c-.064,0-.136-.023-.207.043.151.287.31.575.459.868a4.3,4.3,0,0,1,.325.906,4.805,4.805,0,0,1,.144.986,4.527,4.527,0,0,1-.077.994,5.148,5.148,0,0,1-.261.928,5.674,5.674,0,0,1-.427.9c-.1,0-.072-.076-.074-.126a11.1,11.1,0,0,0-.252-2.048,7.734,7.734,0,0,0-2.487-4.159,11.015,11.015,0,0,0-3.257-1.91,18.608,18.608,0,0,0-2.164-.689c-.04-.01-.095,0-.116-.079a7.646,7.646,0,0,1,.781.028c.459.03.916.069,1.375.1,1.238.082,2.475.159,3.713.239q2.08.136,4.159.277l3.093.205,4.159.277,4.128.272,4.159.276,3.094.207,4.159.276,3.094.207,3.094.205,4.159.277,3.162.218Z" transform="translate(-162.766 -57.583)" fill="#1c1e28"/>
    <path id="Path_13" data-name="Path 13" d="M326.124,107.859h-.454l-1.466.009-2.93.018-1.8.013-7.31.053-11.03.084c-1.008.008-2.017.019-3.033.028a11.869,11.869,0,0,1-1.855-.126,6.776,6.776,0,0,1-1.688-.464,5.025,5.025,0,0,1-2.017-1.52c-.746-.947-1.478-1.906-2.216-2.86a.428.428,0,0,1-.043-.082c.047-.088.126-.054.184-.053.861.025,1.722.058,2.583.079a.284.284,0,0,1,.274.171c.36.63.729,1.25,1.091,1.875a3.8,3.8,0,0,0,.5.7,3.332,3.332,0,0,0,1.93.982,9.075,9.075,0,0,0,1.37.126q2.946.086,5.891.166l4.72.139,4.685.137,4.754.139,4.651.136,1.094.033,1.1.033,1.1.032.539.016.268.008a2.17,2.17,0,0,1,.272.009c.01,0-.011.052-.014.055a.126.126,0,0,1-.057.04.3.3,0,0,1-.111.009C326.779,107.836,326.451,107.852,326.124,107.859Z" transform="translate(-253.693 -89.97)" fill="#1c1e28"/>
    <path id="Path_14" data-name="Path 14" d="M635.969,99.53c-.045-.137.033-.246.083-.359a9.43,9.43,0,0,1,1.081-1.836,9.947,9.947,0,0,1,6.3-3.935,10.111,10.111,0,0,1,10.9,5.42.549.549,0,0,1,.024.064.348.348,0,0,1,.045.082.109.109,0,0,1,.021.058c.038.072.049.126-.061.135a.085.085,0,0,1-.026-.045.115.115,0,0,0-.058-.082,10.4,10.4,0,0,0-1.843-1.944,11.066,11.066,0,0,0-4.622-2.191,11.483,11.483,0,0,0-2.942-.267,11.3,11.3,0,0,0-6.932,2.6,9.719,9.719,0,0,0-1.947,2.215c-.018.029-.028.062-.043.093l-.009-.026Z" transform="translate(-555.785 -81.472)" fill="#1c1e28"/>
    <path id="Path_15" data-name="Path 15" d="M78.592,99.03a.126.126,0,0,1,.02-.055c.013-.03.037-.054.047-.084a10.126,10.126,0,0,1,18.234.142.773.773,0,0,1,.12.323c-.082.019-.095-.049-.118-.084a10.464,10.464,0,0,0-6.727-4.377,11.489,11.489,0,0,0-7.919,1.1,9.985,9.985,0,0,0-3.4,2.908c-.034.047-.071.091-.106.136a.142.142,0,0,0-.059.081.106.106,0,0,1-.028.049.15.15,0,0,1-.054.073h0c-.063.015-.1,0-.071-.072a.117.117,0,0,1,.019-.058C78.56,99.084,78.579,99.056,78.592,99.03Z" transform="translate(-68.622 -81.483)" fill="#1c1e28"/>
    <path id="Path_16" data-name="Path 16" d="M309.35,59.493a.829.829,0,0,1,.3-.02.232.232,0,0,0,.187-.05,9.3,9.3,0,0,1,1.026.081,3.141,3.141,0,0,1,.642.112c-.194,0-.388.008-.581,0-.424-.019-.847-.044-1.271-.072A.639.639,0,0,1,309.35,59.493Z" transform="translate(-270.359 -51.926)" fill="#1c1e28"/>
    <path id="Path_17" data-name="Path 17" d="M782.12,139.345c.059-.026.043-.088.061-.135a.9.9,0,0,1,.2.488h0c-.02,0-.049,0-.059-.011A1.152,1.152,0,0,1,782.12,139.345Z" transform="translate(-683.541 -121.659)" fill="#1c1e28"/>
    <path id="Path_18" data-name="Path 18" d="M77.63,140.3l.071.072c-.044.11-.074.231-.207.275h0A.437.437,0,0,1,77.63,140.3Z" transform="translate(-67.725 -122.612)" fill="#1c1e28"/>
    <path id="Path_19" data-name="Path 19" d="M77.1,143.05c0,.034.011.1-.035.079s-.015-.069.04-.074Z" transform="translate(-67.33 -125.015)" fill="#1c1e28"/>
    <path id="Path_20" data-name="Path 20" d="M784.2,143.045a.254.254,0,0,1,.048.042c.015.025,0,.045-.026.048a.108.108,0,0,1-.013-.029.587.587,0,0,1,0-.066Z" transform="translate(-685.358 -125.007)" fill="#1c1e28"/>
    <path id="Path_21" data-name="Path 21" d="M79.288,138.07a.062.062,0,0,1-.047.084.068.068,0,0,1,.047-.084Z" transform="translate(-69.251 -120.663)" fill="#1c1e28"/>
    <path id="Path_22" data-name="Path 22" d="M782.089,138.182a.062.062,0,0,1-.045-.082.066.066,0,0,1,.045.082Z" transform="translate(-683.47 -120.689)" fill="#1c1e28"/>
    <path id="Path_23" data-name="Path 23" d="M78.756,139.18a.062.062,0,0,1-.047.083.066.066,0,0,1,.047-.083Z" transform="translate(-68.786 -121.633)" fill="#1c1e28"/>
    <path id="Path_24" data-name="Path 24" d="M79.787,139.331a.074.074,0,0,1,.059-.081.071.071,0,0,1-.059.081Z" transform="translate(-69.73 -121.694)" fill="#1c1e28"/>
    <path id="Path_25" data-name="Path 25" d="M781.443,139.27a.074.074,0,0,1,.058.082.071.071,0,0,1-.058-.082Z" transform="translate(-682.948 -121.712)" fill="#1c1e28"/>
    <path id="Path_26" data-name="Path 26" d="M79.128,140.353a.059.059,0,0,1,.054-.073C79.188,140.322,79.165,140.342,79.128,140.353Z" transform="translate(-69.153 -122.594)" fill="#1c1e28"/>
    <path id="Path_27" data-name="Path 27" d="M636.064,143.175l0-.015.014.008Z" transform="translate(-555.89 -125.111)" fill="#1c1e28"/>
  </g>
</svg>
