<svg xmlns="http://www.w3.org/2000/svg" width="2274.139" height="400.492" viewBox="0 0 2274.139 400.492">
  <g id="Layer_1" data-name="Layer 1" transform="translate(0 0)">
    <path id="Path_11" data-name="Path 11" d="M803.767,155.952c-19.877-.883-39.727-1.9-59.6-2.6-23.2-.831-46.4-1.4-69.581-2.1q-64.644-2-129.289-.676c-27.463.546-54.927,1.533-82.364,2.806q-37.6,1.715-75.089,5.482a1071.187,1071.187,0,0,0-128.353,19.591,514.3,514.3,0,0,0-95.278,30.062A267.046,267.046,0,0,0,118.325,233.9a172.578,172.578,0,0,0-29.386,25.619c-24.5,27.178-34.713,59.162-31.984,95.46,0,.727.182,1.4.234,2.131a2.027,2.027,0,0,1,0,.676,2.261,2.261,0,0,1-2.364-1.039,329.642,329.642,0,0,1-38.662-52.692A130.274,130.274,0,0,1,1.95,269.5c-5.3-22.6.234-42.143,16.239-58.8A120.793,120.793,0,0,1,43.418,191.21,290.588,290.588,0,0,1,96.292,167.1c33-11.718,66.385-22.215,99.824-32.634q96.577-30.01,194.712-54.563,78.831-19.643,158.649-35.18,50.848-9.873,102.085-17.8,38.584-5.976,77.376-10.653,36.687-4.443,73.426-7.795c14.862-1.377,29.75-2.286,44.612-3.43C885.04,2.058,923.131.655,961.351.058Q997.6-.436,1033.79,1.669c13.459.779,26.918,1.819,40.351,3.2a707.886,707.886,0,0,1,71.582,10.809c65.839,13.485,129.158,34.946,190.919,61.163a1527.808,1527.808,0,0,1,175.693,89.51,27.334,27.334,0,0,0,14.68,3.871c26.528,0,53.056-.208,79.558.26q47.236.857,94.394,4.209c28.789,2.053,57.551,4.729,86.21,8.34a1183.2,1183.2,0,0,1,188.347,38.116,788.941,788.941,0,0,1,153.53,62.514,586,586,0,0,1,140.487,105.151,14.971,14.971,0,0,1,4.6,5.742c-3.092.364-5.846.805-8.626.987q-26.944,1.767-53.861,3.4c-6.626.442-13.251.753-19.825,1.4a7.066,7.066,0,0,1-7.535-3.715,292.9,292.9,0,0,0-26.528-35.128,337.772,337.772,0,0,0-94.758-74.829,517.58,517.58,0,0,0-93.771-38.428c-31.906-9.847-64.385-17.408-97.044-24.216-25.723-5.378-51.575-10.055-77.583-13.719-17.1-2.416-34.271-4.313-51.445-6.366-24.917-2.962-49.964-4.677-74.985-6.5-8.964-.65-17.954-1.169-26.944-1.507-22.007-.805-44.014-1.455-66.021-2.182-32.686-1.091-65.371-.831-98.031-.676-5.69,0-11.38-.39-17.045-.805q-26.19-1.91-52.406-3.949-32.556-2.6-65.138-5.067c-14.161-1.091-28.321-2.1-42.481-3.17l-52.406-3.975c-14.394-1.091-28.815-2.131-43.209-3.2-12.991-.961-25.983-1.949-38.974-2.884a9.666,9.666,0,0,1-4.729-1.247c-14.316-8.99-22.709-21.358-21.462-38.818.935-12.991,7.795-22.475,18.37-29.75a8.523,8.523,0,0,1,6.158-.883,234.054,234.054,0,0,1,35.674,6c10.081,2.6,19.98,5.794,29.854,9.094a14.368,14.368,0,0,1,8.34,6.989c5.976,10.211,12.29,20.24,18.318,30.425a7.8,7.8,0,0,0,6.6,4.391c11.068,1.013,22.111,2.442,33.179,3.663l47.989,5.2L1389,169.957l11.978,1.3a19.018,19.018,0,0,0-6.573-4.6,1192.936,1192.936,0,0,0-126.015-60.435,983.291,983.291,0,0,0-136.746-44.95,575.78,575.78,0,0,0-69.114-12.5A812.107,812.107,0,0,0,935.6,44.254c-16.551.624-33.127,1.039-49.678,1.923-20.786,1.091-41.572,2.6-62.358,3.9q-21.981,1.481-43.91,3.378c-17.668,1.559-35.336,3.3-53,5.041q-23.384,2.286-46.638,4.807-22.566,2.455-45.157,5.2-20.786,2.364-41.572,4.833c-17.876,2.131-35.726,4.339-53.576,6.5-4.7.572-9.38,1.247-14.108,1.741a3.43,3.43,0,0,0-3.56,2.728c-3.793,16.421,0,29.126,14.057,37.441a50.9,50.9,0,0,0,22.059,7.2c16.733,1.429,33.439,3.352,50.146,5.041,16.265,1.637,32.53,3.17,48.769,4.781q25.1,2.533,50.172,5.2c11.536,1.169,23.1,2.26,34.635,3.4l50.874,5.2,21.176,2.1C810.913,158.161,807.2,156.16,803.767,155.952Z" transform="translate(0.001 0.036)" fill="rgba(242,84,50,0.1)"/>
    <path id="Path_12" data-name="Path 12" d="M1141.431,129.7c-4.729.156-9.457.442-14.186.468L914.19,131.725,679.724,133.44l-182.6,1.3L359.283,135.8c-1.325,0-2.806-.468-4.262.883,3.118,5.924,6.392,11.848,9.457,17.9a88.589,88.589,0,0,1,6.7,18.682,99.053,99.053,0,0,1,2.962,20.318,93.331,93.331,0,0,1-1.585,20.5,106.139,106.139,0,0,1-5.378,19.123,116.983,116.983,0,0,1-8.808,18.474c-1.975,0-1.481-1.559-1.533-2.6a228.776,228.776,0,0,0-5.2-42.221,159.428,159.428,0,0,0-51.263-85.742,227.059,227.059,0,0,0-67.139-39.363A383.616,383.616,0,0,0,188.63,67.549c-.832-.208-1.949,0-2.391-1.637a157.617,157.617,0,0,1,16.109.571c9.458.624,18.889,1.429,28.347,2.053,25.515,1.689,51.029,3.274,76.544,4.937q42.871,2.806,85.742,5.716l63.761,4.235,85.742,5.716,85.093,5.612,85.742,5.69,63.787,4.261,85.742,5.69,63.787,4.261,63.787,4.235,85.742,5.716,65.19,4.495Z" transform="translate(297.659 105.406)" fill="rgba(242,84,50,0.1)"/>
    <path id="Path_13" data-name="Path 13" d="M1029.169,204.125h-9.354l-30.218.182-60.409.364-37.155.26-150.7,1.091-227.373,1.741c-20.786.156-41.572.39-62.513.572a244.667,244.667,0,0,1-38.246-2.6,139.669,139.669,0,0,1-34.79-9.562,103.58,103.58,0,0,1-41.572-31.335c-15.382-19.513-30.478-39.285-45.677-58.954a8.806,8.806,0,0,1-.884-1.689c.962-1.819,2.6-1.117,3.794-1.091,17.746.52,35.492,1.2,53.238,1.637a5.847,5.847,0,0,1,5.638,3.533c7.431,12.991,15.018,25.775,22.5,38.662a78.241,78.241,0,0,0,10.393,14.368c10.809,11.588,24.475,17.512,39.779,20.24a187.046,187.046,0,0,0,28.243,2.6q60.721,1.767,121.442,3.43l97.3,2.858,96.578,2.832,98.005,2.858,95.876,2.806,22.553.675,22.656.675,22.657.649,11.121.338,5.534.156a44.736,44.736,0,0,1,5.612.182c.208,0-.233,1.065-.286,1.144a2.6,2.6,0,0,1-1.169.831,6.158,6.158,0,0,1-2.287.182C1042.68,203.657,1035.924,203.995,1029.169,204.125Z" transform="translate(463.94 164.634)" fill="rgba(242,84,50,0.1)"/>
    <path id="Path_14" data-name="Path 14" d="M636.537,223.146c-.934-2.832.677-5.067,1.716-7.405a194.449,194.449,0,0,1,22.292-37.856c32.974-43.6,76.207-71.218,129.913-81.117a208.429,208.429,0,0,1,224.617,111.724,11.547,11.547,0,0,1,.495,1.325,7.241,7.241,0,0,1,.936,1.689,2.251,2.251,0,0,1,.441,1.2c.779,1.481,1.014,2.6-1.247,2.78a1.74,1.74,0,0,1-.545-.935,2.368,2.368,0,0,0-1.2-1.689,214.379,214.379,0,0,0-37.985-40.065A228.107,228.107,0,0,0,880.7,127.635a236.71,236.71,0,0,0-60.643-5.508c-53.4,2.286-101.332,19.123-142.9,53.576a200.3,200.3,0,0,0-40.142,45.651c-.364.6-.572,1.273-.885,1.923l-.182-.546Z" transform="translate(1016.388 149.094)" fill="rgba(242,84,50,0.1)"/>
    <path id="Path_15" data-name="Path 15" d="M80.03,212.6a2.6,2.6,0,0,1,.416-1.143c.26-.624.753-1.117.961-1.741a208.74,208.74,0,0,1,375.888,2.936,15.931,15.931,0,0,1,2.468,6.652c-1.689.39-1.949-1.013-2.442-1.741-33.907-49-80.909-78.181-138.668-90.237a236.829,236.829,0,0,0-163.247,22.709A205.825,205.825,0,0,0,85.253,209.98c-.7.961-1.455,1.871-2.183,2.806a2.937,2.937,0,0,0-1.221,1.663,2.182,2.182,0,0,1-.572,1.013,3.09,3.09,0,0,1-1.117,1.507h0c-1.3.312-2,0-1.455-1.481a2.416,2.416,0,0,1,.39-1.2C79.38,213.722,79.77,213.15,80.03,212.6Z" transform="translate(125.493 149.113)" fill="rgba(242,84,50,0.1)"/>
    <path id="Path_16" data-name="Path 16" d="M309.35,60.928a17.1,17.1,0,0,1,6.184-.416,4.783,4.783,0,0,0,3.846-1.039c7.119-.364,14.108,1.247,21.149,1.663a64.734,64.734,0,0,1,13.225,2.312c-4,0-8,.156-11.977,0-8.73-.39-17.46-.909-26.19-1.481A13.175,13.175,0,0,1,309.35,60.928Z" transform="translate(494.418 95.061)" fill="rgba(242,84,50,0.1)"/>
    <path id="Path_17" data-name="Path 17" d="M782.119,141.99c1.222-.546.885-1.819,1.249-2.78a18.654,18.654,0,0,1,4.157,10.055h0c-.415,0-1.016,0-1.223-.234A23.742,23.742,0,0,1,782.119,141.99Z" transform="translate(1250.021 222.585)" fill="rgba(242,84,50,0.1)"/>
    <path id="Path_18" data-name="Path 18" d="M80.318,140.3l1.455,1.481c-.909,2.261-1.533,4.755-4.261,5.664h0A9.017,9.017,0,0,1,80.318,140.3Z" transform="translate(123.853 224.327)" fill="rgba(242,84,50,0.1)"/>
    <path id="Path_19" data-name="Path 19" d="M78.234,143.05c0,.7.234,1.975-.728,1.637s-.312-1.429.831-1.533Z" transform="translate(123.131 228.723)" fill="rgba(242,84,50,0.1)"/>
    <path id="Path_20" data-name="Path 20" d="M784.2,143.144a5.217,5.217,0,0,1,.99.858c.31.52,0,.936-.546.987a2.245,2.245,0,0,1-.262-.6,12.658,12.658,0,0,1,0-1.351Z" transform="translate(1253.344 228.707)" fill="rgba(242,84,50,0.1)"/>
    <path id="Path_21" data-name="Path 21" d="M80.256,138.07a1.273,1.273,0,0,1-.962,1.741,1.4,1.4,0,0,1,.962-1.741Z" transform="translate(126.644 220.763)" fill="rgba(242,84,50,0.1)"/>
    <path id="Path_22" data-name="Path 22" d="M783.053,139.789a1.273,1.273,0,0,1-.934-1.689,1.352,1.352,0,0,1,.934,1.689Z" transform="translate(1249.89 220.811)" fill="rgba(242,84,50,0.1)"/>
    <path id="Path_23" data-name="Path 23" d="M79.729,139.18a1.273,1.273,0,0,1-.961,1.715,1.351,1.351,0,0,1,.961-1.715Z" transform="translate(125.793 222.537)" fill="rgba(242,84,50,0.1)"/>
    <path id="Path_24" data-name="Path 24" d="M79.8,140.913a1.533,1.533,0,0,1,1.221-1.663,1.456,1.456,0,0,1-1.221,1.663Z" transform="translate(127.52 222.649)" fill="rgba(242,84,50,0.1)"/>
    <path id="Path_25" data-name="Path 25" d="M781.464,139.27a1.533,1.533,0,0,1,1.195,1.689,1.453,1.453,0,0,1-1.195-1.689Z" transform="translate(1248.934 222.681)" fill="rgba(242,84,50,0.1)"/>
    <path id="Path_26" data-name="Path 26" d="M79.161,141.787a1.221,1.221,0,0,1,1.117-1.507C80.382,141.137,79.914,141.553,79.161,141.787Z" transform="translate(126.465 224.295)" fill="rgba(242,84,50,0.1)"/>
    <path id="Path_27" data-name="Path 27" d="M636.139,143.472l-.08-.312.287.156Z" transform="translate(1016.58 228.898)" fill="rgba(242,84,50,0.1)"/>
  </g>
</svg>
